<svg width="1230" height="612" xmlns="http://www.w3.org/2000/svg" xmlns:xlink="http://www.w3.org/1999/xlink" overflow="hidden"><defs><clipPath id="clip0"><rect x="25" y="54" width="1230" height="612"/></clipPath></defs><g clip-path="url(#clip0)" transform="translate(-25 -54)"><rect x="27.5001" y="62.5001" width="1226" height="124" stroke="#0D213A" stroke-width="3" stroke-miterlimit="8" fill="#0D213A"/><text fill="#FFFFFF" font-family="Roboto,Roboto_MSFontService,sans-serif" font-weight="700" font-size="53" transform="translate(494.9 139)">ATRIBUTOS</text><path d="M640.43 186 640.43 241.705 321 241.705 321 297.41" stroke="#0D213A" stroke-width="6" stroke-miterlimit="8" fill="none" fill-rule="evenodd"/><rect x="187.5" y="298.5" width="268" height="124" stroke="#00C7BD" stroke-width="3" stroke-miterlimit="8" fill="#00C7BD"/><text fill="#FFFFFF" font-family="Roboto,Roboto_MSFontService,sans-serif" font-weight="400" font-size="32" transform="translate(231.179 370)">NUMÉRICAS</text><path d="M320.715 422 320.715 478.546 161 478.546 161 535.091" stroke="#00C7BD" stroke-width="6" stroke-miterlimit="8" fill="none" fill-rule="evenodd"/><rect x="27.5001" y="535.5" width="268" height="125" stroke="#00C7BD" stroke-width="3" stroke-miterlimit="8" fill="#00C7BD"/><text fill="#FFFFFF" font-family="Roboto,Roboto_MSFontService,sans-serif" font-weight="400" font-size="32" transform="translate(81.9176 607)">CONTÍNUA</text><path d="M321 422 321 478.546 480.715 478.546 480.715 535.091" stroke="#00C7BD" stroke-width="6" stroke-miterlimit="8" fill="none" fill-rule="evenodd"/><rect x="346.5" y="535.5" width="268" height="125" stroke="#00C7BD" stroke-width="3" stroke-miterlimit="8" fill="#00C7BD"/><text fill="#FFFFFF" font-family="Roboto,Roboto_MSFontService,sans-serif" font-weight="400" font-size="32" transform="translate(406.608 607)">DISCRETA</text><path d="M640 186 640 241.705 959.43 241.705 959.43 297.41" stroke="#0D213A" stroke-width="6" stroke-miterlimit="8" fill="none" fill-rule="evenodd"/><rect x="825.5" y="298.5" width="268" height="124" stroke="#ED7D31" stroke-width="3" stroke-miterlimit="8" fill="#ED7D31"/><text fill="#FFFFFF" font-family="Roboto,Roboto_MSFontService,sans-serif" font-weight="400" font-size="32" transform="translate(853.497 370)">CATEGÓRICAS</text><path d="M959.715 422 959.715 478.546 800 478.546 800 535.091" stroke="#ED7D31" stroke-width="6" stroke-miterlimit="8" fill="none" fill-rule="evenodd"/><rect x="666.5" y="535.5" width="268" height="125" stroke="#ED7D31" stroke-width="3" stroke-miterlimit="8" fill="#ED7D31"/><text fill="#FFFFFF" font-family="Roboto,Roboto_MSFontService,sans-serif" font-weight="400" font-size="32" transform="translate(728.535 607)">NOMINAL</text><path d="M959 422 959 478.546 1118.72 478.546 1118.72 535.091" stroke="#ED7D31" stroke-width="6" stroke-miterlimit="8" fill="none" fill-rule="evenodd"/><rect x="985.5" y="535.5" width="268" height="125" stroke="#ED7D31" stroke-width="3" stroke-miterlimit="8" fill="#ED7D31"/><text fill="#FFFFFF" font-family="Roboto,Roboto_MSFontService,sans-serif" font-weight="400" font-size="32" transform="translate(1053 607)">ORDINAL</text></g></svg>